# xmcd
#
# Track frame offsets:
# 150
# 17292
# 29570
# 39449
# 48977
# 66537
# 82134
# 93312
# 104604
# 117193
# 135935
# 154235
# 165432
# 187216
# 196361
# 205865
#
# Disc length: 2879 seconds
#
#
# Revision: 0
# Processed by: cddbd v1.5.1PL2 Copyright (c) Steve Scherf et al.
# Submitted via: FreeRIP 2.945 
#
DISCID=da0b3d10
DTITLE=Blues Project - The Blues Project
DYEAR=1900
DGENRE=Blues
TTITLE0=01.Fixin ' to die
TTITLE1=02.Blow whistle blow
TTITLE2=03.My little woman
TTITLE3=04.Ginger man
TTITLE4=05.Bad dream blues
TTITLE5=06.Winding boy
TTITLE6=07.I'm troubled
TTITLE7=08.France blues
TTITLE8=09.Don't you leave me here
TTITLE9=10.Devil got my women
TTITLE10=11.Southbound train
TTITLE11=12.Downttown blues
TTITLE12=13.Leavin' here blues
TTITLE13=14.Hello baby blues
TTITLE14=15.She's gona
TTITLE15=16.Slappin' onmy black cat bone
EXTD=
EXTT0=
EXTT1=
EXTT2=
EXTT3=
EXTT4=
EXTT5=
EXTT6=
EXTT7=
EXTT8=
EXTT9=
EXTT10=
EXTT11=
EXTT12=
EXTT13=
EXTT14=
EXTT15=
PLAYORDER=
